<svg id="Capa_1" enable-background="new 0 0 512 512" height="512" viewBox="0 0 512 512" width="512" xmlns="http://www.w3.org/2000/svg"><g><g><path d="m395.65 452h-210c-24.814 0-45-20.186-45-45s20.186-45 45-45v30c-8.262 0-15 6.724-15 15s6.738 15 15 15h210z" fill="#f9f4f3"/></g><path d="m305.65 422h90v30h-90z" fill="#f0e6e1"/><g><path d="m320.65 0-15 60-15-60h-90v212h210v-212z" fill="#ffd899"/></g><path d="m410.65 212v-212h-90l-15 60v152z" fill="#e6b973"/><g><path d="m290.65 0h30v90h-30z" fill="#e4a046"/></g><path d="m305.65 0h15v90h-15z" fill="#d79148"/><g><path d="m128.649 182-16.068 30-16.03-30-11.4-30h-79.501v-30h100.499z" fill="#f9f4f3"/></g><path d="m185.65 377-67.5-180h367.5l-60 180z" fill="#f9f4f3"/><g id="E_Commerce_2_"><g><path d="m215.65 512c-24.814 0-45-20.186-45-45s20.186-45 45-45 45 20.186 45 45-20.186 45-45 45z" fill="#80564d"/><circle cx="215.65" cy="467" fill="#f9f4f3" r="15"/></g><g><path d="m395.65 512c-24.814 0-45-20.186-45-45s20.186-45 45-45 45 20.186 45 45-20.186 45-45 45z" fill="#66443d"/><circle cx="395.65" cy="467" fill="#f0e6e1" r="15"/></g></g><path d="m305.65 377h120l60-180h-180z" fill="#f0e6e1"/><path d="m96.551 182 75 200.4 3.6 9.6h261.299l69.901-210zm43.198 30h63.301l4.799 30h-56.7zm22.5 60h50.7l5.101 30h-44.401zm33.9 90-11.4-30h38.101l5.099 30zm94.501 0h-32.401l-4.799-30h37.2zm0-60h-42.299l-5.101-30h47.401v30zm0-60h-52.2l-5.099-30h57.299zm62.4 120h-32.4v-30h37.2zm9.899-60h-42.299v-30h47.401zm9.901-60h-52.2v-30h57.299zm42 120h-31.5l5.099-30h36.299zm20.1-60h-41.7l5.101-30h46.5zm-31.5-60 4.799-30h56.7l-10.201 30z" fill="#f36a3d"/><path d="m305.65 392h130.8l69.901-210h-200.7v210zm102.599-180h56.7l-10.201 30h-51.298zm-9.898 60h46.5l-9.901 30h-41.7zm-9.901 60h36.299l-9.899 30h-31.5zm-67.8-120h57.299l-5.099 30h-52.2zm0 60h47.401l-5.101 30h-42.3zm37.2 60-4.799 30h-32.401v-30z" fill="#ec4c36"/></g></svg>